<svg width="24" height="173" viewBox="0 0 24 173" fill="none" xmlns="http://www.w3.org/2000/svg"><path d="M17.224 8.694v-5.04h-2.988V8.55H11.86V3.654H7V1.17h12.6v7.524h-2.376Zm-9.108 9.37c-.912-.924-1.368-2.052-1.368-3.384 0-1.332.456-2.46 1.368-3.384.924-.912 2.052-1.36802 3.384-1.36802 1.332 0 2.454.45602 3.366 1.36802.924.924 1.386 2.052 1.386 3.384 0 1.332-.462 2.46-1.386 3.384-.912.924-2.034 1.386-3.366 1.386-1.332 0-2.46-.462-3.384-1.386Zm1.602-5.13c-.468.468-.702 1.05-.702 1.746s.234 1.278.702 1.746c.468.468 1.062.702 1.782.702s1.314-.234 1.782-.702c.468-.468.702-1.05.702-1.746s-.234-1.278-.702-1.746c-.468-.456-1.062-.684-1.782-.684s-1.314.228-1.782.684ZM7 21.0835h13.14v2.322H7v-2.322Zm0 4.4472h13.14v2.322H7v-2.322ZM8.116 37.646c-.912-.924-1.368-2.052-1.368-3.384 0-1.332.456-2.46 1.368-3.384.924-.912 2.052-1.368 3.384-1.368 1.332 0 2.454.456 3.366 1.368.924.924 1.386 2.052 1.386 3.384 0 1.332-.462 2.46-1.386 3.384-.912.924-2.034 1.386-3.366 1.386-1.332 0-2.46-.462-3.384-1.386Zm1.602-5.13c-.468.468-.702 1.05-.702 1.746s.234 1.278.702 1.746c.468.468 1.062.702 1.782.702s1.314-.234 1.782-.702c.468-.468.702-1.05.702-1.746s-.234-1.278-.702-1.746c-.468-.456-1.062-.684-1.782-.684s-1.314.228-1.782.684ZM16 50.448v2.466l-9-2.862v-2.214l5.454-1.656L7 44.526v-2.214l9-2.862v2.466l-5.526 1.53L16 45.084v2.196l-5.544 1.638L16 50.448Zm0 14.1575v2.322H7v-2.322h1.008c-.84-.564-1.26-1.458-1.26-2.682 0-.984.33-1.8.99-2.448.66-.636 1.572-.954 2.736-.954H16v2.322h-5.238c-.6 0-1.062.162-1.386.486-.312.324-.468.756-.468 1.296 0 .6.186 1.08.558 1.44.372.36.93.54 1.674.54H16Zm-2.556 6.5204c-.24 0-.438.156-.594.468-.144.324-.276.714-.396 1.17-.108.456-.252.912-.432 1.368-.168.456-.456.84-.864 1.152-.408.324-.918.486-1.53.486-.924 0-1.638-.348-2.142-1.044-.492-.684-.738-1.542-.738-2.574 0-1.848.714-3.108 2.142-3.78l1.134 2.016c-.78.264-1.17.852-1.17 1.764 0 .828.258 1.242.774 1.242.24 0 .432-.162.576-.486.156-.312.294-.696.414-1.152.12-.456.27-.912.45-1.368.18-.456.462-.846.846-1.17.396-.312.888-.468 1.476-.468.888 0 1.584.324 2.088.972.516.66.774 1.476.774 2.448 0 .732-.168 1.398-.504 1.998-.324.6-.792 1.074-1.404 1.422l-1.08-1.98c.612-.288.918-.768.918-1.44 0-.3-.066-.552-.198-.756-.132-.192-.312-.288-.54-.288ZM7.8 103h8.4c3.2032 0 5.8 2.597 5.8 5.8v8.4c0 3.203-2.5968 5.8-5.8 5.8H7.8c-3.20325 0-5.8-2.597-5.8-5.8v-8.4c0-3.203 2.59675-5.8 5.8-5.8Zm-.2 2c-1.98823 0-3.6 1.612-3.6 3.6v8.8c0 1.988 1.61177 3.6 3.6 3.6h8.8c1.9882 0 3.6-1.612 3.6-3.6v-8.8c0-1.988-1.6118-3.6-3.6-3.6H7.6Zm9.65 1.5c.6904 0 1.25.56 1.25 1.25s-.5596 1.25-1.25 1.25-1.25-.56-1.25-1.25.5596-1.25 1.25-1.25ZM12 108c2.7614 0 5 2.239 5 5s-2.2386 5-5 5c-2.76143 0-5-2.239-5-5s2.23857-5 5-5Zm0 2c-1.6569 0-3 1.343-3 3s1.3431 3 3 3 3-1.343 3-3-1.3431-3-3-3ZM22.4592 155.012c-.7696.342-1.5968.572-2.4648.676.8859-.531 1.5665-1.372 1.8869-2.374-.8293.492-1.7477.849-2.7253 1.041-.7828-.834-1.8981-1.355-3.1325-1.355-2.3701 0-4.2918 1.921-4.2918 4.292 0 .336.038.663.1112.978-3.56681-.179-6.72915-1.888-8.84581-4.484-.36944.633-.58108 1.371-.58108 2.157 0 1.489.75763 2.803 1.90922 3.572-.70344-.022-1.36527-.215-1.94384-.537-.00041.018-.00041.036-.00041.054 0 2.08 1.47935 3.814 3.44261 4.209-.3601.098-.73925.15-1.13065.15-.27654 0-.54539-.027-.80748-.077.54615 1.705 2.13107 2.946 4.00908 2.981-1.46878 1.151-3.31927 1.837-5.33001 1.837-.34641 0-.68802-.021-1.02376-.06C3.44003 169.289 5.69591 170 8.1195 170c7.8939 0 12.2107-6.54 12.2107-12.211 0-.186-.0042-.371-.0125-.555.8386-.605 1.5662-1.361 2.1415-2.222Z" fill="#fff"/></svg>